<svg width="56" height="48" viewBox="0 0 56 48" fill="none" xmlns="http://www.w3.org/2000/svg">
<path d="M32 0C25.6348 0 19.5303 2.52856 15.0294 7.02944C10.5286 11.5303 8 17.6348 8 24H0L10.3733 34.3733L10.56 34.7467L21.3333 24H13.3333C13.3333 13.68 21.68 5.33333 32 5.33333C42.32 5.33333 50.6667 13.68 50.6667 24C50.6667 34.32 42.32 42.6667 32 42.6667C26.8533 42.6667 22.1867 40.56 18.8267 37.1733L15.04 40.96C17.2624 43.1947 19.9053 44.9673 22.8162 46.1756C25.727 47.3839 28.8483 48.0039 32 48C38.3652 48 44.4697 45.4714 48.9706 40.9706C53.4714 36.4697 56 30.3652 56 24C56 17.6348 53.4714 11.5303 48.9706 7.02944C44.4697 2.52856 38.3652 9.48488e-08 32 0ZM29.3333 13.3333V26.6667L40.6667 33.3867L42.72 29.9733L33.3333 24.4V13.3333H29.3333Z" fill="#808080"/>
</svg>
