<svg width="52" height="54" viewBox="0 0 52 54" fill="none" xmlns="http://www.w3.org/2000/svg">
<path d="M25.9449 36C23.4695 36 21.0956 35.0167 19.3452 33.2663C17.5949 31.516 16.6116 29.142 16.6116 26.6667C16.6116 24.1913 17.5949 21.8173 19.3452 20.067C21.0956 18.3167 23.4695 17.3333 25.9449 17.3333C28.4202 17.3333 30.7942 18.3167 32.5445 20.067C34.2949 21.8173 35.2782 24.1913 35.2782 26.6667C35.2782 29.142 34.2949 31.516 32.5445 33.2663C30.7942 35.0167 28.4202 36 25.9449 36ZM45.7582 29.2533C45.8649 28.4 45.9449 27.5467 45.9449 26.6667C45.9449 25.7867 45.8649 24.9067 45.7582 24L51.3849 19.6533C51.8916 19.2533 52.0249 18.5333 51.7049 17.9467L46.3716 8.72001C46.0516 8.13334 45.3316 7.89334 44.7449 8.13334L38.1049 10.8C36.7182 9.76001 35.2782 8.85334 33.5982 8.18667L32.6116 1.12001C32.5574 0.805917 32.3938 0.521144 32.1497 0.316142C31.9057 0.111141 31.5969 -0.000852732 31.2782 4.88925e-06H20.6116C19.9449 4.88925e-06 19.3849 0.480005 19.2782 1.12001L18.2916 8.18667C16.6116 8.85334 15.1716 9.76001 13.7849 10.8L7.14488 8.13334C6.55822 7.89334 5.83822 8.13334 5.51822 8.72001L0.184884 17.9467C-0.161782 18.5333 -0.00178214 19.2533 0.504885 19.6533L6.13155 24C6.02489 24.9067 5.94488 25.7867 5.94488 26.6667C5.94488 27.5467 6.02489 28.4 6.13155 29.2533L0.504885 33.68C-0.00178214 34.08 -0.161782 34.8 0.184884 35.3867L5.51822 44.6133C5.83822 45.2 6.55822 45.4133 7.14488 45.2L13.7849 42.5067C15.1716 43.5733 16.6116 44.48 18.2916 45.1467L19.2782 52.2133C19.3849 52.8533 19.9449 53.3333 20.6116 53.3333H31.2782C31.9449 53.3333 32.5049 52.8533 32.6116 52.2133L33.5982 45.1467C35.2782 44.4533 36.7182 43.5733 38.1049 42.5067L44.7449 45.2C45.3316 45.4133 46.0516 45.2 46.3716 44.6133L51.7049 35.3867C52.0249 34.8 51.8916 34.08 51.3849 33.68L45.7582 29.2533Z" fill="#808080"/>
</svg>
