<svg width="56" height="50" viewBox="0 0 56 50" fill="none" xmlns="http://www.w3.org/2000/svg">
<path d="M8 6.99771H48C48.4672 6.99758 48.934 7.02723 49.3975 7.08646C49.2404 5.98368 48.8616 4.92413 48.2839 3.9717C47.7063 3.01927 46.9417 2.19368 46.0364 1.54472C45.131 0.895751 44.1036 0.43685 43.0161 0.19568C41.9286 -0.0454905 40.8036 -0.063934 39.7088 0.141461L6.8125 5.75771H6.775C4.71009 6.15258 2.87383 7.32087 1.64125 9.02396C3.49824 7.70312 5.72117 6.99477 8 6.99771ZM48 9.99771H8C5.87898 10 3.84549 10.8436 2.3457 12.3434C0.845914 13.8432 0.00231607 15.8767 0 17.9977V41.9977C0.00231607 44.1187 0.845914 46.1522 2.3457 47.652C3.84549 49.1518 5.87898 49.9954 8 49.9977H48C50.121 49.9954 52.1545 49.1518 53.6543 47.652C55.1541 46.1522 55.9977 44.1187 56 41.9977V17.9977C55.9977 15.8767 55.1541 13.8432 53.6543 12.3434C52.1545 10.8436 50.121 10 48 9.99771ZM42.0625 33.9977C41.2714 33.9977 40.498 33.7631 39.8402 33.3236C39.1824 32.8841 38.6697 32.2593 38.367 31.5284C38.0642 30.7975 37.985 29.9933 38.1394 29.2174C38.2937 28.4414 38.6747 27.7287 39.2341 27.1693C39.7935 26.6099 40.5062 26.2289 41.2821 26.0746C42.0581 25.9202 42.8623 25.9994 43.5932 26.3022C44.3241 26.6049 44.9489 27.1176 45.3884 27.7754C45.8279 28.4332 46.0625 29.2066 46.0625 29.9977C46.0625 31.0586 45.6411 32.076 44.8909 32.8261C44.1408 33.5763 43.1234 33.9977 42.0625 33.9977Z" fill="#808080"/>
<path d="M0.0625 26.4352V13.9977C0.0625 11.2889 1.5625 6.74768 6.76875 5.76393C11.1875 4.93518 15.5625 4.93518 15.5625 4.93518C15.5625 4.93518 18.4375 6.93518 16.0625 6.93518C13.6875 6.93518 13.75 9.99768 16.0625 9.99768C18.375 9.99768 16.0625 12.9352 16.0625 12.9352L6.75 23.4977L0.0625 26.4352Z" fill="#808080"/>
</svg>
