<svg width="30" height="30" viewBox="0 0 30 30" fill="none" xmlns="http://www.w3.org/2000/svg">
<path d="M30 19.5469L29.5781 18.375C29.25 18.5156 28.875 18.3281 28.7813 18C28.6406 17.6719 28.8281 17.2969 29.1562 17.2031L28.6875 15.9375C28.3594 16.0781 27.9844 15.8906 27.8906 15.5625C27.75 15.2344 27.9375 14.8594 28.2656 14.7656L27.8438 13.5938C27.5156 13.7344 27.1406 13.5469 27.0469 13.2188C26.9062 12.8906 27.0938 12.5156 27.4219 12.4219L27 11.25C26.6719 11.3438 26.3438 11.2031 26.2031 10.9219C24.9375 11.0625 23.6719 10.3594 23.25 9.09375L5.71875 15.375C6.23437 16.8281 5.48438 18.4219 4.03125 18.9844L7.45312 28.3125C8.90625 27.7969 10.5 28.5469 11.0625 30L28.5469 23.625C28.0781 22.3594 28.5937 21 29.6719 20.2969C29.5312 20.0156 29.6719 19.6406 30 19.5469Z" fill="#FBBF67"/>
<path d="M25.9469 21.5848L11.2971 26.9078C10.5237 27.1808 9.65923 26.7714 9.34075 25.9979L6.74746 18.855C6.47448 18.0815 6.88395 17.2171 7.65739 16.8986L22.3072 11.5756C23.0807 11.3026 23.9451 11.7121 24.2636 12.4855L26.8569 19.6284C27.1298 20.4474 26.7204 21.3118 25.9469 21.5848ZM7.93036 17.6721C7.5209 17.8086 7.33891 18.2635 7.4754 18.6275L10.0687 25.7704C10.2052 26.1799 10.6601 26.3619 11.0241 26.2254L25.674 20.9023C26.0834 20.7658 26.2654 20.3109 26.1289 19.9469L23.5356 12.804C23.3991 12.3945 22.9442 12.2125 22.5802 12.349L7.93036 17.6721Z" fill="#FF5555"/>
<path d="M7.52083 18.952C7.34139 18.4664 7.58963 17.9272 8.07531 17.7477L22.6581 12.3596C23.1437 12.1802 23.6829 12.4284 23.8624 12.9141L26.4877 20.0196C26.6672 20.5053 26.4189 21.0445 25.9333 21.2239L11.3505 26.612C10.8648 26.7915 10.3256 26.5432 10.1462 26.0575L7.52083 18.952Z" fill="#FF5555"/>
<path d="M19.3654 17.8474C19.721 17.9089 19.8766 18.3323 19.6456 18.6095L17.0462 21.7276C16.8151 22.0048 16.3707 21.9279 16.2462 21.5892L14.8455 17.779C14.721 17.4403 15.0098 17.0938 15.3654 17.1554L19.3654 17.8474Z" fill="#D9D9D9"/>
<g opacity="0.5">
<path d="M11.9062 25.6875L26.1562 13.7344C25.4531 12.8906 25.3594 11.8125 25.7344 10.875C24.6094 10.8281 23.625 10.125 23.2031 9.04688L5.71875 15.375C6.23437 16.8281 5.48438 18.4219 4.03125 18.9844L5.10937 21.9844L7.92187 25.3594C9.14062 24.3281 10.875 24.5156 11.9062 25.6875Z" fill="#947151"/>
<path d="M11.9062 25.6875L26.1562 13.7344C25.4531 12.8906 25.3594 11.8125 25.7344 10.875C24.6094 10.8281 23.625 10.125 23.2031 9.04688L5.71875 15.375C6.23437 16.8281 5.48438 18.4219 4.03125 18.9844L5.10937 21.9844L7.92187 25.3594C9.14062 24.3281 10.875 24.5156 11.9062 25.6875Z" fill="#947151"/>
</g>
<path d="M24.6094 7.54688L23.8125 6.5625C23.5312 6.79688 23.1562 6.75 22.9219 6.46875C22.6875 6.1875 22.7344 5.8125 23.0156 5.57812L22.2188 4.59375C21.9375 4.82812 21.5625 4.78125 21.3281 4.5C21.0938 4.21875 21.1406 3.84375 21.4219 3.60938L20.625 2.625C20.3438 2.85938 19.9688 2.8125 19.7344 2.53125C19.4062 2.34375 19.4531 1.96875 19.6875 1.73438L18.8906 0.75C18.6094 0.984375 18.2344 0.9375 18 0.703125C16.875 1.26562 15.4688 1.03125 14.5781 0L0.328125 11.9531C1.35938 13.1719 1.17188 14.9531 0 15.9375L6.375 23.5781C7.54688 22.5938 9.32812 22.7344 10.3125 23.9062L24.5625 11.9531C23.7188 10.9219 23.7188 9.46875 24.4688 8.4375C24.3281 8.15625 24.375 7.78125 24.6094 7.54688Z" fill="#FBBF67"/>
<path d="M22.125 10.9687L9.84373 21.2812C9.18748 21.8437 8.2031 21.75 7.6406 21.0937L2.62498 15.0937C2.06248 14.4375 2.15623 13.4531 2.81248 12.8906L15.0937 2.57811C15.75 2.01561 16.7344 2.10936 17.2969 2.76561L22.3125 8.76562C22.875 9.42187 22.7812 10.4062 22.125 10.9687ZM3.3281 13.5C2.99998 13.7812 2.9531 14.25 3.23435 14.5781L8.24998 20.625C8.53123 20.9531 8.99998 21 9.3281 20.7187L21.6094 10.4062C21.9375 10.125 21.9844 9.65624 21.7031 9.32812L16.6875 3.28124C16.4062 2.95312 15.9375 2.90624 15.6094 3.18749L3.3281 13.5Z" fill="#FF5555"/>
<path d="M2.94939 14.7781C2.61491 14.3829 2.66415 13.7913 3.05937 13.4569L15.4049 3.00878C15.8001 2.6743 16.3917 2.72354 16.7261 3.11877L21.9228 9.25914C22.2573 9.65437 22.208 10.2459 21.8128 10.5804L9.46727 21.0285C9.07205 21.363 8.4805 21.3137 8.14602 20.9185L2.94939 14.7781Z" fill="#FF5555"/>
<path d="M14.1238 9.86158C14.479 9.79801 14.7698 10.1428 14.6472 10.4822L13.1307 14.6822C13.0082 15.0216 12.5642 15.1011 12.3315 14.8253L9.45244 11.4119C9.21978 11.1361 9.37296 10.7119 9.72816 10.6483L14.1238 9.86158Z" fill="#D9D9D9"/>
</svg>
