<svg width="64" height="64" viewBox="0 0 64 64" fill="none" xmlns="http://www.w3.org/2000/svg">
<path d="M64.0001 41.7L63.1001 39.2C62.4001 39.5 61.6001 39.1 61.4001 38.4C61.1001 37.7 61.5001 36.9 62.2001 36.7L61.2001 34C60.5001 34.3 59.7001 33.9 59.5001 33.2C59.2001 32.5 59.6001 31.7 60.3001 31.5L59.4001 29C58.7001 29.3 57.9001 28.9 57.7001 28.2C57.4001 27.5 57.8001 26.7 58.5001 26.5L57.6001 24C56.9001 24.2 56.2001 23.9 55.9001 23.3C53.2001 23.6 50.5001 22.1 49.6001 19.4L12.2001 32.8C13.3001 35.9 11.7001 39.3 8.6001 40.5L15.9001 60.4C19.0001 59.3 22.4001 60.9 23.6001 64L60.9001 50.4C59.9001 47.7 61.0001 44.8 63.3001 43.3C63.0001 42.7 63.3001 41.9 64.0001 41.7Z" fill="#FBBF67"/>
<path d="M55.3536 46.0475L24.1006 57.4034C22.4506 57.9858 20.6064 57.1123 19.927 55.4622L14.3947 40.224C13.8123 38.574 14.6859 36.7299 16.3359 36.0505L47.5888 24.6946C49.2388 24.1122 51.083 24.9857 51.7624 26.6357L57.2947 41.874C57.8771 43.6211 57.0036 45.4652 55.3536 46.0475ZM16.9182 37.7005C16.0447 37.9916 15.6564 38.9622 15.9476 39.7387L21.48 54.977C21.7712 55.8505 22.7417 56.2387 23.5182 55.9475L54.7712 44.5916C55.6447 44.3005 56.033 43.3299 55.7418 42.5534L50.2094 27.3151C49.9183 26.4416 48.9477 26.0534 48.1712 26.3446L16.9182 37.7005Z" fill="#FF5555"/>
<path d="M16.0445 40.431C15.6617 39.3949 16.1913 38.2446 17.2274 37.8618L48.3373 26.3673C49.3734 25.9844 50.5237 26.514 50.9065 27.5501L56.5073 42.7085C56.8901 43.7446 56.3605 44.8949 55.3244 45.2777L24.2145 56.7723C23.1784 57.1551 22.0281 56.6255 21.6453 55.5894L16.0445 40.431Z" fill="#FF5555"/>
<path d="M41.313 38.0745C42.0715 38.2058 42.4035 39.1089 41.9106 39.7002L36.3653 46.3522C35.8723 46.9435 34.9242 46.7794 34.6586 46.0569L31.6704 37.9285C31.4048 37.206 32.021 36.4669 32.7795 36.5981L41.313 38.0745Z" fill="#D9D9D9"/>
<g opacity="0.5">
<path d="M25.4001 54.8L55.8001 29.3C54.3001 27.5 54.1001 25.2001 54.9001 23.2001C52.5001 23.1001 50.4001 21.6 49.5001 19.3L12.2001 32.8C13.3001 35.9 11.7001 39.3 8.6001 40.5L10.9001 46.9001L16.9001 54.1C19.5001 51.9 23.2001 52.3 25.4001 54.8Z" fill="#947151"/>
<path d="M25.4001 54.8L55.8001 29.3C54.3001 27.5 54.1001 25.2001 54.9001 23.2001C52.5001 23.1001 50.4001 21.6 49.5001 19.3L12.2001 32.8C13.3001 35.9 11.7001 39.3 8.6001 40.5L10.9001 46.9001L16.9001 54.1C19.5001 51.9 23.2001 52.3 25.4001 54.8Z" fill="#947151"/>
</g>
<path d="M52.5 16.1L50.8 14C50.2 14.5 49.4 14.4 48.9 13.8C48.4 13.2 48.5 12.4 49.1 11.9L47.4 9.8C46.8 10.3 46 10.2 45.5 9.6C45 9 45.1 8.2 45.7 7.7L44 5.6C43.4 6.1 42.6 6 42.1 5.4C41.4 5 41.5 4.2 42 3.7L40.3 1.6C39.7 2.1 38.9 2 38.4 1.5C36 2.7 33 2.2 31.1 0L0.7 25.5C2.9 28.1 2.5 31.9 0 34L13.6 50.3C16.1 48.2 19.9 48.5 22 51L52.4 25.5C50.6 23.3 50.6 20.2 52.2 18C51.9 17.4 52 16.6 52.5 16.1Z" fill="#FBBF67"/>
<path d="M47.2 23.4L21 45.4C19.6 46.6 17.5 46.4 16.3 45L5.59995 32.2C4.39995 30.8 4.59995 28.7 5.99995 27.5L32.2 5.49998C33.6 4.29998 35.7 4.49998 36.9 5.89998L47.6 18.7C48.8 20.1 48.6 22.2 47.2 23.4ZM7.09995 28.8C6.39995 29.4 6.29995 30.4 6.89995 31.1L17.6 44C18.2 44.7 19.2 44.8 19.9 44.2L46.1 22.2C46.8 21.6 46.9 20.6 46.3 19.9L35.6 6.99998C35 6.29998 34 6.19998 33.3 6.79998L7.09995 28.8Z" fill="#FF5555"/>
<path d="M6.29203 31.5266C5.57846 30.6835 5.68352 29.4215 6.52667 28.7079L32.8638 6.41873C33.7069 5.70516 34.9689 5.81022 35.6824 6.65337L46.7686 19.7528C47.4821 20.596 47.3771 21.858 46.5339 22.5715L20.1968 44.8607C19.3537 45.5743 18.0917 45.4692 17.3782 44.6261L6.29203 31.5266Z" fill="#FF5555"/>
<path d="M30.1307 21.038C30.8885 20.9024 31.5089 21.638 31.2474 22.362L28.0123 31.3221C27.7508 32.0462 26.8036 32.2157 26.3073 31.6273L20.1652 24.3455C19.6689 23.757 19.9957 22.852 20.7534 22.7164L30.1307 21.038Z" fill="#D9D9D9"/>
</svg>
