<svg width="48" height="48" viewBox="0 0 48 48" fill="none" xmlns="http://www.w3.org/2000/svg">
<path fill-rule="evenodd" clip-rule="evenodd" d="M26.2475 9.42949L22.9343 12.7427C22.2861 13.3687 21.4179 13.7152 20.5168 13.7073C19.6156 13.6995 18.7536 13.338 18.1164 12.7008C17.4791 12.0636 17.1177 11.2016 17.1098 10.3004C17.102 9.39926 17.4484 8.53108 18.0745 7.88287L21.3877 4.56625C24.3114 1.64253 28.2768 -3.08064e-08 32.4116 0C36.5463 3.08064e-08 40.5118 1.64253 43.4355 4.56625C46.3592 7.48997 48.0017 11.4554 48.0017 15.5902C48.0017 19.7249 46.3592 23.6903 43.4355 26.6141L40.1189 29.9272C39.8018 30.2555 39.4226 30.5173 39.0033 30.6975C38.5839 30.8776 38.1329 30.9724 37.6766 30.9764C37.2202 30.9803 36.7677 30.8934 36.3453 30.7206C35.9229 30.5478 35.5392 30.2925 35.2165 29.9698C34.8938 29.6471 34.6386 29.2634 34.4658 28.841C34.2929 28.4186 34.206 27.9661 34.2099 27.5097C34.2139 27.0534 34.3087 26.6024 34.4888 26.1831C34.669 25.7637 34.9308 25.3845 35.2591 25.0674L38.5723 21.7508C40.1303 20.1017 40.984 17.9099 40.9517 15.6414C40.9195 13.3728 40.004 11.2062 38.3998 9.60197C36.7955 7.9977 34.6289 7.0822 32.3603 7.04999C30.0918 7.01778 27.8966 7.87141 26.2475 9.42949ZM12.6235 18.1936C13.2679 18.8381 13.6298 19.7122 13.6298 20.6235C13.6298 21.5349 13.2679 22.4089 12.6235 23.0534L9.31036 26.37C7.75228 28.0192 6.89865 30.2109 6.93086 32.4795C6.96307 34.748 7.87857 36.9146 9.48284 38.5189C11.0871 40.1232 13.2537 41.0387 15.5223 41.0709C17.7908 41.1031 19.9825 40.2495 21.6317 38.6914L24.9483 35.3782C25.5965 34.7521 26.4647 34.4057 27.3659 34.4135C28.267 34.4214 29.129 34.7828 29.7663 35.4201C30.4035 36.0573 30.7649 36.9193 30.7728 37.8205C30.7806 38.7216 30.4342 39.5898 29.8081 40.238L26.4949 43.5512C23.561 46.423 19.6126 48.0216 15.507 47.9998C11.4015 47.978 7.47033 46.3376 4.56702 43.4347C1.66371 40.5318 0.0226815 36.6009 0.000233354 32.4954C-0.0222148 28.3899 1.57573 24.4412 4.44712 21.5068L7.76375 18.1936C8.40826 17.5493 9.2823 17.1873 10.1936 17.1873C11.105 17.1873 11.979 17.5493 12.6235 18.1936ZM31.5266 21.335C32.1526 20.6867 32.4991 19.8186 32.4912 18.9174C32.4834 18.0163 32.1219 17.1543 31.4847 16.517C30.8475 15.8798 29.9855 15.5183 29.0843 15.5105C28.1832 15.5027 27.315 15.8491 26.6668 16.4752L16.356 26.7859C15.73 27.4341 15.3835 28.3023 15.3914 29.2034C15.3992 30.1046 15.7607 30.9666 16.3979 31.6038C17.0351 32.2411 17.8972 32.6025 18.7983 32.6104C19.6994 32.6182 20.5676 32.2718 21.2158 31.6457L31.5266 21.335Z" fill="#E1E1E1"/>
</svg>
