<svg width="54" height="56" viewBox="0 0 54 56" fill="none" xmlns="http://www.w3.org/2000/svg">
<path d="M53.3333 16.4326V16.6273C53.3333 18.9206 53.3333 20.07 52.7813 21.0086C52.2293 21.9473 51.224 22.5046 49.2187 23.622L47.104 24.7953C48.56 19.8673 49.048 14.5713 49.2267 10.0433L49.2533 9.45397L49.2587 9.31531C50.9947 9.91797 51.9707 10.3686 52.5787 11.2113C53.3333 12.2593 53.3333 13.6513 53.3333 16.4326ZM0 16.4326V16.6273C0 18.9206 3.97364e-08 20.07 0.552 21.0086C1.104 21.9473 2.10933 22.5046 4.11467 23.622L6.232 24.7953C4.77333 19.8673 4.28533 14.5713 4.10667 10.0433L4.08 9.45397L4.07733 9.31531C2.33867 9.91797 1.36267 10.3686 0.754667 11.2113C0 12.2593 0 13.654 0 16.4326Z" fill="#E1E1E1"/>
<path fill-rule="evenodd" clip-rule="evenodd" d="M38.3387 0.925961C34.4805 0.293619 30.5763 -0.0158971 26.6667 0.000628241C21.912 0.000628241 17.992 0.419295 14.9947 0.925961C11.9573 1.43796 10.44 1.69396 9.17066 3.25663C7.904 4.81929 7.97066 6.50729 8.104 9.8833C8.56533 21.478 11.0667 35.9633 24.6667 37.2433V46.6673H20.8533C20.2371 46.6677 19.64 46.8815 19.1636 47.2723C18.6871 47.6632 18.3608 48.207 18.24 48.8113L17.7333 51.334H10.6667C10.1362 51.334 9.62752 51.5447 9.25245 51.9198C8.87738 52.2948 8.66666 52.8035 8.66666 53.334C8.66666 53.8644 8.87738 54.3731 9.25245 54.7482C9.62752 55.1233 10.1362 55.334 10.6667 55.334H42.6667C43.1971 55.334 43.7058 55.1233 44.0809 54.7482C44.456 54.3731 44.6667 53.8644 44.6667 53.334C44.6667 52.8035 44.456 52.2948 44.0809 51.9198C43.7058 51.5447 43.1971 51.334 42.6667 51.334H35.6L35.0933 48.8113C34.9725 48.207 34.6462 47.6632 34.1698 47.2723C33.6933 46.8815 33.0962 46.6677 32.48 46.6673H28.6667V37.2433C42.2667 35.9633 44.7707 21.4806 45.2293 9.8833C45.3627 6.50729 45.432 4.81663 44.1627 3.25663C42.8933 1.69396 41.376 1.43796 38.3387 0.925961Z" fill="#E1E1E1"/>
</svg>
