<svg width="139" height="139" viewBox="0 0 139 139" fill="none" xmlns="http://www.w3.org/2000/svg">
<g filter="url(#filter0_dd_91_88)">
<path d="M127 67C127 100.137 100.137 127 67 127C33.8633 127 7 100.137 7 67C7 33.8633 33.8633 7 67 7C100.137 7 127 33.8633 127 67Z" fill="#FFCC4D"/>
<path d="M67 79.83C57.1134 79.83 50.55 78.6767 42.4367 77.1C40.58 76.7467 36.9767 77.1 36.9767 82.56C36.9767 93.4767 49.52 107.123 67 107.123C84.48 107.123 97.0234 93.4767 97.0234 82.56C97.0234 77.1 93.4167 76.7433 91.5634 77.1C83.45 78.6767 76.89 79.83 67 79.83Z" fill="#664500"/>
<path d="M62.5001 17.9367C59.6367 9.83334 50.7534 5.58 42.6467 8.43667C37.7267 10.17 34.2434 14.14 32.8867 18.7833C28.9167 16.02 23.7167 15.1167 18.8034 16.85C10.7034 19.71 6.44338 28.6 9.30672 36.7033C9.71338 37.85 10.2534 38.9133 10.88 39.8967C17.3834 51.8367 36.1734 60.23 47.5501 60.3333C56.3401 53.11 65.7034 34.7833 63.2767 21.41C63.1501 20.25 62.9001 19.0833 62.5001 17.9367ZM71.5001 17.9367C74.3634 9.83334 83.25 5.58 91.3534 8.43667C96.2734 10.17 99.7567 14.14 101.117 18.7833C105.087 16.02 110.287 15.1167 115.2 16.85C123.3 19.71 127.557 28.6 124.7 36.7033C124.29 37.85 123.753 38.9133 123.123 39.8967C116.62 51.8367 97.83 60.23 86.45 60.3333C77.66 53.11 68.3001 34.7833 70.7267 21.41C70.8501 20.25 71.1001 19.0833 71.5001 17.9367Z" fill="#DD2E44"/>
<path d="M67 3.5C71.6181 3.5 76.1209 3.99346 80.459 4.92969C84.2605 3.73042 88.468 3.7086 92.5166 5.13574L93.0771 5.34277C97.3981 7.01738 100.758 10.1183 102.843 13.8877C107 12.1907 111.78 11.9324 116.364 13.5498H116.365C126.286 17.0528 131.5 27.9405 128.001 37.8672C127.999 37.872 127.998 37.877 127.996 37.8818C127.504 39.2569 126.867 40.5234 126.132 41.6855C125.969 41.9803 125.8 42.2718 125.625 42.5615C128.765 50.0842 130.5 58.3393 130.5 67C130.5 102.07 102.07 130.5 67 130.5C31.9303 130.5 3.5 102.07 3.5 67C3.5 58.3384 5.23475 50.0819 8.375 42.5586C8.1995 42.2671 8.02956 41.9733 7.86621 41.6768C7.14089 40.5243 6.4989 39.2578 6.00781 37.873L6.00684 37.8691C2.49841 27.9398 7.71827 17.0525 17.6377 13.5498H17.6387C22.2224 11.9328 27.0018 12.1906 31.1582 13.8867C33.3306 9.95569 36.8931 6.75302 41.4834 5.13574C45.5331 3.70868 49.7408 3.73057 53.542 4.92969C57.8798 3.99359 62.3823 3.5 67 3.5Z" stroke="white" stroke-width="7" stroke-linejoin="round"/>
</g>
<defs>
<filter id="filter0_dd_91_88" x="0" y="0" width="139" height="139" filterUnits="userSpaceOnUse" color-interpolation-filters="sRGB">
<feFlood flood-opacity="0" result="BackgroundImageFix"/>
<feColorMatrix in="SourceAlpha" type="matrix" values="0 0 0 0 0 0 0 0 0 0 0 0 0 0 0 0 0 0 127 0" result="hardAlpha"/>
<feOffset dx="5" dy="5"/>
<feComposite in2="hardAlpha" operator="out"/>
<feColorMatrix type="matrix" values="0 0 0 0 0 0 0 0 0 0 0 0 0 0 0 0 0 0 0.22 0"/>
<feBlend mode="normal" in2="BackgroundImageFix" result="effect1_dropShadow_91_88"/>
<feColorMatrix in="SourceAlpha" type="matrix" values="0 0 0 0 0 0 0 0 0 0 0 0 0 0 0 0 0 0 127 0" result="hardAlpha"/>
<feOffset dx="1" dy="2"/>
<feComposite in2="hardAlpha" operator="out"/>
<feColorMatrix type="matrix" values="0 0 0 0 0 0 0 0 0 0 0 0 0 0 0 0 0 0 0.25 0"/>
<feBlend mode="normal" in2="effect1_dropShadow_91_88" result="effect2_dropShadow_91_88"/>
<feBlend mode="normal" in="SourceGraphic" in2="effect2_dropShadow_91_88" result="shape"/>
</filter>
</defs>
</svg>
