<svg width="139" height="139" viewBox="0 0 139 139" fill="none" xmlns="http://www.w3.org/2000/svg">
<g filter="url(#filter0_dd_265_329)">
<path d="M127 70.2674C127 63.386 125.705 56.7883 123.329 50.6845C121.706 68.6689 111.566 77.9063 100.971 73.6046C91.0459 69.5732 97.7341 53.8582 98.2282 46.3595C99.0612 33.648 98.1859 19.0977 73.7659 7.00024C83.9129 25.355 74.9412 36.7583 65.5318 37.4524C55.0918 38.2233 45.5306 28.9692 49.06 13.9517C37.6318 21.9143 37.3 35.3166 40.8259 43.9867C44.5035 53.0239 40.6777 60.5327 31.7094 61.367C21.6859 62.3014 16.1165 51.2185 21.2518 33.5579C12.3647 43.4528 7 56.2677 7 70.2674C7 101.601 33.8624 127 67 127C100.138 127 127 101.601 127 70.2674Z" fill="#F4900C"/>
<path d="M103.685 86.9501C104.207 97.2421 94.6459 101.277 89.5 99.3279C82.0671 96.5146 84.0612 91.6823 82.1482 81.6706C80.2353 71.659 72.8835 64.7075 62.0024 61.6473C69.9435 82.7819 57.6012 90.571 51.1318 91.9627C44.5247 93.3843 37.8859 91.9593 37.1271 78.5904C29.4188 85.8455 24.6471 95.8839 24.6471 106.977C24.6471 108.205 24.7283 109.413 24.8412 110.614C35.6765 120.74 50.56 127 67 127C83.44 127 98.3235 120.74 109.159 110.614C109.272 109.413 109.353 108.205 109.353 106.977C109.353 99.6783 107.292 92.8403 103.685 86.9501Z" fill="#FFCC4D"/>
<path d="M71.2363 4.5813C72.294 3.47522 73.9479 3.18431 75.3193 3.86353C88.0228 10.1567 95.0415 17.3161 98.6348 24.9612C102.197 32.5407 102.145 40.1085 101.721 46.5881V46.5901C101.577 48.7699 100.997 51.447 100.479 53.929C99.9321 56.5434 99.4033 59.1474 99.1777 61.6028C98.9494 64.0892 99.0711 66.0776 99.5859 67.5374C100.043 68.8326 100.813 69.7625 102.288 70.3616C106.191 71.9457 109.908 71.1252 113.053 68.0139C116.344 64.7569 119.079 58.8394 119.844 50.3694L119.884 50.0706C120.146 48.5929 121.331 47.4325 122.839 47.219C124.448 46.9914 126.002 47.9011 126.591 49.4153C129.12 55.9153 130.5 62.9433 130.5 70.2678C130.5 95.4056 114.336 116.779 91.4971 125.848C91.4592 125.863 91.4208 125.877 91.3828 125.892C91.1883 125.969 90.9933 126.044 90.7979 126.119C90.7357 126.143 90.6735 126.167 90.6113 126.191C90.4462 126.253 90.2811 126.317 90.1152 126.378C90.0285 126.41 89.9414 126.442 89.8545 126.474C89.6933 126.533 89.5319 126.592 89.3701 126.65C89.3161 126.669 89.2621 126.688 89.208 126.707C89.0233 126.773 88.8379 126.837 88.6523 126.901C88.5843 126.924 88.5164 126.948 88.4482 126.971C88.2887 127.025 88.1289 127.079 87.9688 127.132C87.8352 127.176 87.7014 127.22 87.5674 127.264C87.4532 127.301 87.3391 127.339 87.2246 127.375C87.0772 127.422 86.9292 127.468 86.7812 127.514C86.6934 127.541 86.6056 127.569 86.5176 127.596C85.35 127.954 84.1675 128.279 82.9717 128.573C82.9081 128.589 82.8449 128.606 82.7812 128.621C80.8252 129.097 78.833 129.484 76.8096 129.782C76.7412 129.793 76.673 129.804 76.6045 129.814C76.1435 129.88 75.6809 129.941 75.2168 129.998C75.1475 130.007 75.0782 130.015 75.0088 130.024C74.5244 130.082 74.0384 130.134 73.5508 130.182C73.5169 130.185 73.4831 130.189 73.4492 130.193C72.7581 130.259 72.0636 130.313 71.3662 130.358C70.993 130.382 70.619 130.404 70.2441 130.422C69.7994 130.443 69.3534 130.459 68.9062 130.472C68.273 130.49 67.6376 130.5 67 130.5C66.3621 130.5 65.7263 130.49 65.0928 130.472C64.6457 130.459 64.1997 130.443 63.7549 130.422C63.38 130.404 63.006 130.382 62.6328 130.358C61.9354 130.313 61.2409 130.259 60.5498 130.193C60.5159 130.189 60.4821 130.185 60.4482 130.182C59.9606 130.134 59.4746 130.082 58.9902 130.024C58.9209 130.015 58.8515 130.007 58.7822 129.998C58.3181 129.941 57.8555 129.88 57.3945 129.814C57.3261 129.804 57.2578 129.793 57.1895 129.782C55.166 129.484 53.1738 129.097 51.2178 128.621C51.1542 128.606 51.0909 128.589 51.0273 128.573C49.8315 128.279 48.649 127.954 47.4814 127.596C47.3934 127.569 47.3056 127.541 47.2178 127.514C47.0698 127.468 46.9219 127.422 46.7744 127.375C46.6599 127.339 46.5459 127.301 46.4316 127.264C46.2977 127.22 46.1639 127.176 46.0303 127.132C45.8705 127.079 45.711 127.025 45.5518 126.971C45.4833 126.948 45.415 126.924 45.3467 126.901C45.1614 126.837 44.9765 126.773 44.792 126.707C44.7382 126.688 44.6846 126.669 44.6309 126.65C44.439 126.581 44.2476 126.512 44.0566 126.442C44.01 126.424 43.9635 126.407 43.917 126.39C43.731 126.321 43.5455 126.251 43.3604 126.181C43.3072 126.161 43.2543 126.14 43.2012 126.119C43.0057 126.044 42.8107 125.969 42.6162 125.892C42.5785 125.877 42.5406 125.863 42.5029 125.848C19.6637 116.779 3.50019 95.4056 3.5 70.2678C3.5 55.3494 9.2216 41.7138 18.6475 31.219C19.7386 30.0041 21.5249 29.7058 22.9521 30.4993C24.3794 31.2927 25.0682 32.9674 24.6123 34.5354C22.1662 42.9478 22.4444 49.2485 24.0322 53.1018C24.8098 54.9888 25.8651 56.2187 27.0098 56.9504C28.1383 57.6719 29.5723 58.051 31.3848 57.8821L31.7109 57.8479C35.0292 57.4581 36.9601 55.9537 37.9043 54.1379C38.9243 52.1763 39.1504 49.1551 37.584 45.3059V45.3049C33.6639 35.6653 33.8594 20.2776 47.0596 11.0803C48.2493 10.2515 49.8268 10.2413 51.0264 11.0559C52.2259 11.8705 52.7985 13.3406 52.4668 14.7522C50.907 21.3892 52.3116 26.3173 54.7969 29.4446C57.3096 32.6062 61.1755 34.2648 65.2744 33.9622C68.6576 33.7125 72.0986 31.5236 73.7451 27.5188C75.3784 23.5457 75.4274 17.2393 70.7031 8.6936C69.9625 7.35389 70.1785 5.68785 71.2363 4.5813Z" stroke="white" stroke-width="7" stroke-linejoin="round"/>
</g>
<defs>
<filter id="filter0_dd_265_329" x="0" y="0" width="139" height="139" filterUnits="userSpaceOnUse" color-interpolation-filters="sRGB">
<feFlood flood-opacity="0" result="BackgroundImageFix"/>
<feColorMatrix in="SourceAlpha" type="matrix" values="0 0 0 0 0 0 0 0 0 0 0 0 0 0 0 0 0 0 127 0" result="hardAlpha"/>
<feOffset dx="5" dy="5"/>
<feComposite in2="hardAlpha" operator="out"/>
<feColorMatrix type="matrix" values="0 0 0 0 0 0 0 0 0 0 0 0 0 0 0 0 0 0 0.22 0"/>
<feBlend mode="normal" in2="BackgroundImageFix" result="effect1_dropShadow_265_329"/>
<feColorMatrix in="SourceAlpha" type="matrix" values="0 0 0 0 0 0 0 0 0 0 0 0 0 0 0 0 0 0 127 0" result="hardAlpha"/>
<feOffset dx="1" dy="2"/>
<feComposite in2="hardAlpha" operator="out"/>
<feColorMatrix type="matrix" values="0 0 0 0 0 0 0 0 0 0 0 0 0 0 0 0 0 0 0.25 0"/>
<feBlend mode="normal" in2="effect1_dropShadow_265_329" result="effect2_dropShadow_265_329"/>
<feBlend mode="normal" in="SourceGraphic" in2="effect2_dropShadow_265_329" result="shape"/>
</filter>
</defs>
</svg>
