<svg width="139" height="139" viewBox="0 0 139 139" fill="none" xmlns="http://www.w3.org/2000/svg">
<g filter="url(#filter0_dd_265_350)">
<path d="M51.5942 36.1231C53.8157 46.0303 22.3127 75.5151 13.6326 51.5134C8.59872 37.6066 4.20295 8.45224 9.19968 7.06644C14.1964 5.6844 49.3761 26.2122 51.5942 36.1231Z" fill="#F4900C"/>
<path d="M44.862 38.1996C48.1031 43.9757 38.6802 55.3287 33.4911 58.9378C28.2985 62.5469 23.7036 56.8647 18.5887 42.3608C16.3536 36.0177 12.964 18.8135 14.8647 17.4915C16.7622 16.1733 41.6175 32.4236 44.862 38.1996Z" fill="#A0041E"/>
<path d="M82.405 36.1231C80.1868 46.034 111.686 75.5151 120.37 51.5134C125.4 37.6066 129.796 8.45224 124.8 7.06644C119.803 5.6844 84.6265 26.2122 82.405 36.1231Z" fill="#F4900C"/>
<path d="M89.1405 38.2C85.8994 43.976 95.3222 55.329 100.511 58.9381C105.701 62.5472 110.296 56.865 115.41 42.3611C117.645 36.0217 121.035 18.8176 119.138 17.4956C117.237 16.1737 92.385 32.4239 89.1405 38.2Z" fill="#A0041E"/>
<path d="M115.458 100.381C115.458 98.6756 114.823 96.2833 114.084 94.045C116.059 94.1502 119.212 94.7623 123.436 97.1133C123.409 95.1003 123.037 93.4179 122.514 91.8818C122.653 91.9569 122.767 92.0095 122.906 92.0884C119.182 79.6575 111.734 71.369 111.734 71.369H119.182C111.312 53.8569 102.419 41.2683 91.9193 35.4697C87.2264 32.1911 79.468 30.4448 67.0268 30.441H67.0167C54.5417 30.441 46.7732 32.1986 42.0837 35.496C31.604 41.3058 22.7247 53.8832 14.8684 71.369H22.3196C22.3196 71.369 14.8684 79.6538 11.1411 92.0884C11.2424 92.0321 11.3268 91.9945 11.4247 91.9382C10.7461 93.4103 10.3882 95.1191 10.4726 97.1096C14.7367 94.7361 17.9576 94.1352 19.9698 94.0375C19.3317 95.9641 18.8117 97.9583 18.6666 99.577C18.2513 100.97 18.0217 102.626 18.2108 104.621C29.0381 99.1488 34.1024 99.93 40.0107 103.216C44.106 116.822 54.2109 127 67.0234 127C79.8292 127 89.799 116.507 93.891 102.904C98.8134 98.2099 106.41 99.6183 115.552 104.467C115.775 102.912 115.674 101.564 115.431 100.362L115.458 100.381Z" fill="#F18F26"/>
<path d="M111.731 87.9463C111.751 87.9463 115.471 87.9575 122.902 92.0886C118.686 81.4266 97.4967 76.8035 89.3736 79.7291C85.4202 87.0675 85.0488 98.5181 77.9521 104.598C72.0742 109.973 62.0402 110.074 56.0779 104.598C48.1608 97.3727 47.4383 82.7674 44.6597 79.7291C36.5332 76.796 15.3512 81.4341 11.1309 92.0886C18.5619 87.9538 22.2858 87.9463 22.3027 87.9463C22.3027 87.95 18.5788 96.2385 18.5788 100.381L18.5822 100.377V100.381C26.6782 94.4734 35.8546 91.852 43.6637 98.6834C49.2884 128.431 85.1669 127.019 90.3662 98.6834C98.1787 91.8558 107.348 94.4697 115.448 100.381C115.455 96.2385 111.734 87.9463 111.731 87.9463Z" fill="#FFD983"/>
<path d="M43.3867 63.1554C43.3867 63.1554 43.3867 57.5221 48.451 57.5221C53.5152 57.5221 53.5152 63.1554 53.5152 63.1554V68.7887C53.5152 68.7887 53.5152 74.422 48.451 74.422C43.3867 74.422 43.3867 68.7887 43.3867 68.7887V63.1554ZM80.5246 63.1554C80.5246 63.1554 80.5246 57.5221 85.5888 57.5221C90.6531 57.5221 90.6531 63.1554 90.6531 63.1554V68.7887C90.6531 68.7887 90.6531 74.422 85.5888 74.422C80.5246 74.422 80.5246 68.7887 80.5246 68.7887V63.1554ZM56.6854 103.745C53.2384 104.527 63.5762 118.647 67.0233 118.647C70.4669 118.647 80.8048 104.527 77.3611 103.745C73.914 102.964 60.1325 102.964 56.6854 103.745Z" fill="#272B2B"/>
<path d="M123.024 3.5918C123.732 3.48974 124.728 3.41578 125.732 3.69336H125.735C128.046 4.33427 129.08 6.34617 129.539 7.60742C130.051 9.01464 130.3 10.6982 130.415 12.4053C130.648 15.8672 130.382 20.3231 129.82 25.0107C128.73 34.1039 126.439 44.7478 123.907 52.0117L123.661 52.7041C122.328 56.3883 120.429 59.1819 118.093 61.0928C119.563 63.903 120.991 66.8548 122.375 69.9346C122.861 71.0175 122.766 72.2737 122.121 73.2705C121.476 74.2674 120.369 74.8691 119.181 74.8691H118.669C118.735 74.9707 118.802 75.0729 118.869 75.1768C121.319 78.9935 124.278 84.4725 126.259 91.084C126.409 91.5871 126.44 92.1051 126.366 92.6035C126.694 93.9451 126.913 95.4153 126.935 97.0664C126.952 98.3153 126.302 99.478 125.229 100.118C124.157 100.758 122.824 100.779 121.733 100.172C120.682 99.5869 119.719 99.1313 118.846 98.7744C118.906 99.2517 118.944 99.7184 118.953 100.167C119.194 101.58 119.274 103.171 119.017 104.963C118.856 106.091 118.154 107.07 117.138 107.587C116.123 108.103 114.919 108.092 113.913 107.559C109.513 105.225 105.793 103.894 102.786 103.589C100.27 103.333 98.4014 103.798 96.9304 104.906C92.4037 118.865 81.6417 130.5 67.0232 130.5C52.6061 130.5 41.7518 119.468 37.1111 105.645C34.9867 104.593 33.1509 104.084 31.0369 104.133C28.4263 104.193 24.995 105.114 19.7898 107.744C18.7573 108.266 17.5332 108.244 16.5203 107.686C15.5073 107.127 14.8356 106.103 14.7263 104.951C14.5188 102.763 14.7179 100.854 15.1423 99.1904C15.1576 99.0352 15.1737 98.878 15.1941 98.7197C14.2824 99.0838 13.2745 99.5557 12.1746 100.168C11.1138 100.758 9.8228 100.757 8.76343 100.164C7.70389 99.5711 7.02678 98.4709 6.97534 97.2578C6.89594 95.3852 7.12643 93.65 7.63159 92.0576C7.63447 91.7237 7.68482 91.3877 7.78589 91.0596L7.87671 90.7998C9.85807 84.3134 12.7672 78.9354 15.1833 75.1738C15.2495 75.0709 15.3162 74.9697 15.3816 74.8691H14.8679C13.6808 74.869 12.5743 74.2672 11.9294 73.2705C11.2845 72.2737 11.189 71.0176 11.6755 69.9346C13.0548 66.8648 14.4768 63.9221 15.9421 61.1201C13.5903 59.2088 11.6803 56.4063 10.3416 52.7051L10.0955 52.0127C7.56148 44.7486 5.27022 34.1049 4.17944 25.0117C3.61712 20.3238 3.3515 15.8673 3.58472 12.4053C3.69972 10.6983 3.94781 9.01461 4.45972 7.60742C4.91861 6.34614 5.95362 4.33424 8.2644 3.69336H8.26636C9.27011 3.41573 10.267 3.48976 10.9744 3.5918C11.7518 3.70395 12.5779 3.91279 13.4031 4.16895C15.0577 4.68261 17.0091 5.48168 19.1013 6.45898C23.3024 8.42139 28.3733 11.2467 33.324 14.4111C38.2687 17.5717 43.1957 21.1355 47.0691 24.5977C48.4491 25.8311 49.7259 27.0824 50.8367 28.3223C55.3091 27.3816 60.6671 26.9414 67.0164 26.9414H67.0281C73.3588 26.9433 78.7031 27.3826 83.1667 28.3174C84.2767 27.0789 85.5529 25.8298 86.9314 24.5977C90.8049 21.1355 95.7319 17.5718 100.677 14.4111C105.627 11.2467 110.697 8.4214 114.898 6.45898C116.99 5.48163 118.942 4.68262 120.596 4.16895C121.421 3.91283 122.247 3.70397 123.024 3.5918Z" stroke="white" stroke-width="7" stroke-linejoin="round"/>
</g>
<defs>
<filter id="filter0_dd_265_350" x="0" y="0" width="138.999" height="139" filterUnits="userSpaceOnUse" color-interpolation-filters="sRGB">
<feFlood flood-opacity="0" result="BackgroundImageFix"/>
<feColorMatrix in="SourceAlpha" type="matrix" values="0 0 0 0 0 0 0 0 0 0 0 0 0 0 0 0 0 0 127 0" result="hardAlpha"/>
<feOffset dx="5" dy="5"/>
<feComposite in2="hardAlpha" operator="out"/>
<feColorMatrix type="matrix" values="0 0 0 0 0 0 0 0 0 0 0 0 0 0 0 0 0 0 0.22 0"/>
<feBlend mode="normal" in2="BackgroundImageFix" result="effect1_dropShadow_265_350"/>
<feColorMatrix in="SourceAlpha" type="matrix" values="0 0 0 0 0 0 0 0 0 0 0 0 0 0 0 0 0 0 127 0" result="hardAlpha"/>
<feOffset dx="1" dy="2"/>
<feComposite in2="hardAlpha" operator="out"/>
<feColorMatrix type="matrix" values="0 0 0 0 0 0 0 0 0 0 0 0 0 0 0 0 0 0 0.25 0"/>
<feBlend mode="normal" in2="effect1_dropShadow_265_350" result="effect2_dropShadow_265_350"/>
<feBlend mode="normal" in="SourceGraphic" in2="effect2_dropShadow_265_350" result="shape"/>
</filter>
</defs>
</svg>
