<svg width="139" height="139" viewBox="0 0 139 139" fill="none" xmlns="http://www.w3.org/2000/svg">
<g filter="url(#filter0_dd_91_87)">
<path d="M87.6234 39.19L106.483 20.3433L113.667 27.5333L94.8067 46.3833L87.6234 39.19Z" fill="#CCD6DD"/>
<path d="M53.6667 127C79.44 127 100.333 106.107 100.333 80.3333C100.333 54.56 79.44 33.6667 53.6667 33.6667C27.8934 33.6667 7 54.56 7 80.3333C7 106.107 27.8934 127 53.6667 127Z" fill="#31373D"/>
<path d="M70.3333 44.8067L89.1933 25.95L108.05 44.81L89.19 63.6667L70.3333 44.8067Z" fill="#31373D"/>
<path d="M113.667 33.6667C121.03 33.6667 127 27.6971 127 20.3333C127 12.9695 121.03 7 113.667 7C106.303 7 100.333 12.9695 100.333 20.3333C100.333 27.6971 106.303 33.6667 113.667 33.6667Z" fill="#F18F26"/>
<path d="M113.667 27C117.349 27 120.333 24.0152 120.333 20.3333C120.333 16.6514 117.349 13.6667 113.667 13.6667C109.985 13.6667 107 16.6514 107 20.3333C107 24.0152 109.985 27 113.667 27Z" fill="#FDCB58"/>
<path d="M113.667 3.5C122.964 3.50018 130.5 11.0365 130.5 20.333C130.5 29.6297 122.964 37.1668 113.667 37.167C112.228 37.167 110.832 36.985 109.499 36.6455L107.167 38.9766L110.525 42.335C111.182 42.9914 111.55 43.8823 111.55 44.8105C111.55 45.7387 111.181 46.6289 110.524 47.2852L98.9932 58.8135C102.095 65.3351 103.833 72.6307 103.833 80.333C103.833 108.039 81.3731 130.5 53.667 130.5C25.9607 130.5 3.5 108.039 3.5 80.333C3.50018 52.6269 25.9608 30.167 53.667 30.167C61.3688 30.167 68.6643 31.9044 75.1855 35.0059L86.7188 23.4746L86.8496 23.3506C88.2236 22.1096 90.344 22.1515 91.668 23.4756L95.0303 26.8389L97.3564 24.5146C97.0147 23.1777 96.833 21.7764 96.833 20.333C96.8332 11.0364 104.37 3.5 113.667 3.5Z" stroke="white" stroke-width="7" stroke-linejoin="round"/>
</g>
<defs>
<filter id="filter0_dd_91_87" x="0" y="0" width="139" height="139" filterUnits="userSpaceOnUse" color-interpolation-filters="sRGB">
<feFlood flood-opacity="0" result="BackgroundImageFix"/>
<feColorMatrix in="SourceAlpha" type="matrix" values="0 0 0 0 0 0 0 0 0 0 0 0 0 0 0 0 0 0 127 0" result="hardAlpha"/>
<feOffset dx="5" dy="5"/>
<feComposite in2="hardAlpha" operator="out"/>
<feColorMatrix type="matrix" values="0 0 0 0 0 0 0 0 0 0 0 0 0 0 0 0 0 0 0.22 0"/>
<feBlend mode="normal" in2="BackgroundImageFix" result="effect1_dropShadow_91_87"/>
<feColorMatrix in="SourceAlpha" type="matrix" values="0 0 0 0 0 0 0 0 0 0 0 0 0 0 0 0 0 0 127 0" result="hardAlpha"/>
<feOffset dx="1" dy="2"/>
<feComposite in2="hardAlpha" operator="out"/>
<feColorMatrix type="matrix" values="0 0 0 0 0 0 0 0 0 0 0 0 0 0 0 0 0 0 0.25 0"/>
<feBlend mode="normal" in2="effect1_dropShadow_91_87" result="effect2_dropShadow_91_87"/>
<feBlend mode="normal" in="SourceGraphic" in2="effect2_dropShadow_91_87" result="shape"/>
</filter>
</defs>
</svg>
