<svg width="139" height="139" viewBox="0 0 139 139" fill="none" xmlns="http://www.w3.org/2000/svg">
<g filter="url(#filter0_dd_265_341)">
<path d="M55.8089 35.11C57.5123 43.8329 55.1562 50.9956 45.3339 52.5032C35.5045 54.0145 21.3071 67.1212 13.6042 45.7604C9.13952 33.3887 6.44278 7.87282 11.951 7.02903C17.4628 6.1815 54.1091 26.3872 55.8089 35.11Z" fill="#66757F"/>
<path d="M48.3715 36.4377C51.4734 41.6579 40.4641 50.8119 34.5865 53.5683C28.7089 56.3284 24.1331 51.0932 19.6218 38.1927C17.6494 32.5563 15.1965 17.447 17.3482 16.4345C19.4963 15.4294 45.2659 31.2175 48.3715 36.4377Z" fill="#CCD6DD"/>
<path d="M79.1687 35.1099C77.5263 43.8327 79.7998 50.9955 89.2743 52.503C98.7559 54.0143 112.455 67.1211 119.885 45.7603C124.192 33.3849 126.796 7.87268 121.481 7.02515C116.163 6.18137 80.8075 26.3871 79.1687 35.1099Z" fill="#66757F"/>
<path d="M86.3445 36.4377C83.3501 41.6579 93.9721 50.8119 99.6417 53.5683C105.311 56.3284 109.726 51.0932 114.079 38.1927C115.984 32.5563 118.347 17.447 116.27 16.4345C114.201 15.4294 89.3425 31.2175 86.3445 36.4377Z" fill="#CCD6DD"/>
<path d="M118.526 100.419C118.526 98.716 117.852 96.3271 117.067 94.0921C119.164 94.1971 122.514 94.8083 127 97.1559C126.971 95.1458 126.577 93.4658 126.021 91.932C126.168 92.007 126.29 92.0595 126.437 92.1382C122.478 79.7253 114.571 71.4487 114.571 71.4487H122.482C114.122 53.9619 104.677 41.3914 93.5238 35.6012C88.5391 32.3273 80.2983 30.5835 67.0836 30.5798H67.0728C53.8186 30.5798 45.5706 32.3348 40.5895 35.6275C29.4583 41.4289 20.0269 53.9881 11.682 71.4487H19.5965C19.5965 71.4487 11.682 79.7215 7.72299 92.1382L8.02422 91.992C7.30342 93.462 6.92329 95.1684 7.01295 97.1559C11.5422 94.7858 14.9633 94.1858 17.1006 94.0883C16.4229 96.0121 15.8706 98.0034 15.7164 99.6198C15.2753 101.011 15.0314 102.665 15.2323 104.656C26.7329 99.1885 32.112 99.9685 38.3877 103.25C42.7376 116.837 53.4708 126.999 67.08 126.999C80.682 126.999 91.2718 116.522 95.6181 102.939C100.847 98.251 108.915 99.6573 118.626 104.499C118.863 102.95 118.756 101.6 118.497 100.4L118.526 100.419Z" fill="#66757F"/>
<path d="M126.437 92.1382C124.87 87.2143 113.294 80.5088 101.431 75.2136C102.363 72.7236 102.937 69.9597 102.937 66.9971C102.937 56.643 96.5145 48.2464 88.5928 48.2464C80.6711 48.2464 74.2484 56.643 74.2484 66.9971C74.2484 78.2475 88.5928 104.498 67.0726 108.691C48.6939 105.11 56.4793 85.4365 59.1402 72.7648C59.3984 71.7298 59.5885 70.6685 59.7068 69.5659C59.8287 68.6472 59.904 67.7809 59.904 66.9971C59.904 56.643 53.4813 48.2464 45.5597 48.2464C37.638 48.2464 31.2153 56.643 31.2153 66.9971C31.2153 69.9597 31.7891 72.7236 32.725 75.2136C20.8623 80.5088 9.28994 87.2141 7.71923 92.138C15.6337 87.9979 19.5928 87.9979 19.5928 87.9979C19.5928 87.9979 15.6337 96.2782 15.6337 100.418C25.2086 93.7431 34.7799 92.4605 42.2748 98.7232C46.6247 112.31 52.7319 123.249 67.0798 112.464C81.4206 123.249 87.5205 112.314 91.8669 98.7307C99.369 92.4568 108.948 93.7433 118.526 100.419C118.526 96.2784 114.57 87.9979 114.57 87.9979C114.57 87.9979 118.526 88.0018 126.437 92.1382Z" fill="#CCD6DD"/>
<path d="M41.9736 63.247C41.9736 63.247 41.9736 57.6218 47.3527 57.6218C52.7319 57.6218 52.7319 63.247 52.7319 63.247V68.8722C52.7319 68.8722 52.7319 74.4974 47.3527 74.4974C41.9736 74.4974 41.9736 68.8722 41.9736 68.8722V63.247ZM81.4206 63.247C81.4206 63.247 81.4206 57.6218 86.7997 57.6218C92.1789 57.6218 92.1789 63.247 92.1789 63.247V68.8722C92.1789 68.8722 92.1789 74.4974 86.7997 74.4974C81.4206 74.4974 81.4206 68.8722 81.4206 68.8722V63.247ZM56.0992 97.5832C52.4378 98.3632 63.4184 112.464 67.0798 112.464C70.7376 112.464 81.7182 98.3632 78.0604 97.5832C74.4026 96.8032 59.7606 96.8032 56.0992 97.5832Z" fill="#292F33"/>
<path d="M119.5 3.6665C120.196 3.53553 121.109 3.4229 122.029 3.56885H122.032C124.227 3.91882 125.518 5.49469 126.202 6.77588C126.893 8.06935 127.29 9.61716 127.535 11.1372C128.032 14.2199 128.053 18.1766 127.783 22.2983C127.26 30.2995 125.582 39.7431 123.403 46.2866L123.19 46.9106C121.83 50.8207 120.189 53.9052 118.226 56.2114C120.82 60.4172 123.285 65.0134 125.64 69.939C126.158 71.0234 126.083 72.2981 125.442 73.3149C124.801 74.3318 123.683 74.9487 122.481 74.9487H121.76C121.809 75.0206 121.86 75.0925 121.91 75.1655C124.509 78.9724 127.654 84.4443 129.765 91.0542C129.767 91.0611 129.769 91.0678 129.771 91.0747C129.816 91.2141 129.849 91.3553 129.875 91.4966C129.912 91.6952 129.933 91.8945 129.936 92.0933C129.938 92.2753 129.926 92.4564 129.9 92.6353C130.247 93.978 130.476 95.4518 130.5 97.106C130.518 98.3392 129.885 99.4909 128.834 100.137C127.783 100.783 126.47 100.829 125.377 100.257C124.097 99.5876 122.937 99.0817 121.898 98.7017C121.908 98.7683 121.914 98.8353 121.922 98.9019C121.932 98.9783 121.941 99.0545 121.949 99.1304C121.958 99.2142 121.966 99.2979 121.974 99.3813C121.983 99.4799 121.99 99.5779 121.997 99.6753C122.009 99.8502 122.019 100.024 122.022 100.196C122.278 101.62 122.361 103.227 122.086 105.028C121.917 106.133 121.23 107.091 120.237 107.606C119.245 108.121 118.065 108.13 117.064 107.631C112.38 105.296 108.379 103.942 105.108 103.629C102.323 103.364 100.237 103.858 98.6133 105.016C93.768 119.05 82.3396 130.499 67.0801 130.5C52.0243 130.5 40.4988 119.64 35.5371 105.743C33.2276 104.661 31.1996 104.12 28.8457 104.171C25.9825 104.234 22.2782 105.182 16.7354 107.817C15.7073 108.306 14.5053 108.264 13.5137 107.706C12.522 107.147 11.8642 106.14 11.75 105.007C11.5254 102.78 11.7447 100.838 12.207 99.1489C12.2248 98.9841 12.2443 98.8185 12.2676 98.6528C11.1847 99.0385 9.97224 99.558 8.63574 100.257C7.57569 100.812 6.30575 100.786 5.26855 100.19C4.23142 99.5936 3.57062 98.5091 3.5166 97.314C3.43111 95.4186 3.68145 93.664 4.22266 92.0571C4.23023 91.7287 4.28164 91.3981 4.38477 91.0747C4.40349 91.016 4.42619 90.9582 4.44629 90.8999C6.55709 84.3568 9.67437 78.9395 12.2549 75.1626C12.3042 75.0905 12.3544 75.0197 12.4033 74.9487H11.6816C10.4799 74.9486 9.36259 74.3316 8.72168 73.3149C8.08077 72.2983 8.00626 71.0243 8.52441 69.9399C10.815 65.1472 13.2105 60.666 15.7275 56.5532C13.5803 54.2238 11.7878 51.0416 10.3115 46.9478V46.9468C7.94257 40.3816 6.10565 30.5755 5.5459 22.3081C5.26657 18.1825 5.28819 14.2153 5.80566 11.1196C6.06106 9.5919 6.47517 8.03346 7.19629 6.73193C7.92059 5.4247 9.24344 3.90497 11.4189 3.5708V3.56982C12.3311 3.42956 13.2451 3.53556 13.957 3.66455C14.7262 3.8039 15.5581 4.0275 16.4111 4.29932C18.1199 4.84379 20.1441 5.65646 22.3291 6.64209C26.7111 8.61879 31.9829 11.4041 37.1094 14.479C42.2269 17.5485 47.2997 20.9664 51.2432 24.2251C52.6321 25.3729 53.917 26.5338 55.0312 27.6792C58.5955 27.2751 62.5974 27.0796 67.0732 27.0796H67.085C71.8259 27.0809 76.035 27.3005 79.7559 27.7554C80.8393 26.5979 82.0919 25.4253 83.4463 24.2651C87.256 21.0018 92.1553 17.5797 97.0967 14.5073C102.047 11.4297 107.139 8.64139 111.374 6.66064C113.485 5.6733 115.446 4.85738 117.104 4.30908C117.932 4.03543 118.745 3.8086 119.5 3.6665Z" stroke="white" stroke-width="7" stroke-linejoin="round"/>
</g>
<defs>
<filter id="filter0_dd_265_341" x="0" y="0" width="139" height="139" filterUnits="userSpaceOnUse" color-interpolation-filters="sRGB">
<feFlood flood-opacity="0" result="BackgroundImageFix"/>
<feColorMatrix in="SourceAlpha" type="matrix" values="0 0 0 0 0 0 0 0 0 0 0 0 0 0 0 0 0 0 127 0" result="hardAlpha"/>
<feOffset dx="5" dy="5"/>
<feComposite in2="hardAlpha" operator="out"/>
<feColorMatrix type="matrix" values="0 0 0 0 0 0 0 0 0 0 0 0 0 0 0 0 0 0 0.22 0"/>
<feBlend mode="normal" in2="BackgroundImageFix" result="effect1_dropShadow_265_341"/>
<feColorMatrix in="SourceAlpha" type="matrix" values="0 0 0 0 0 0 0 0 0 0 0 0 0 0 0 0 0 0 127 0" result="hardAlpha"/>
<feOffset dx="1" dy="2"/>
<feComposite in2="hardAlpha" operator="out"/>
<feColorMatrix type="matrix" values="0 0 0 0 0 0 0 0 0 0 0 0 0 0 0 0 0 0 0.25 0"/>
<feBlend mode="normal" in2="effect1_dropShadow_265_341" result="effect2_dropShadow_265_341"/>
<feBlend mode="normal" in="SourceGraphic" in2="effect2_dropShadow_265_341" result="shape"/>
</filter>
</defs>
</svg>
